HIERARCHY
ROOT Hips
{
	OFFSET 0.000000 0.000000 0.000000
	CHANNELS 6 Xposition Yposition Zposition Xrotation Yrotation Zrotation
	JOINT LeftUpLeg_virtual
	{
		OFFSET 0.000000 0.000000 0.000000
		CHANNELS 3 Xrotation Yrotation Zrotation
		JOINT LeftUpLeg
		{
			OFFSET 11.394100 -6.187798 -0.413800
			CHANNELS 3 Xrotation Yrotation Zrotation
			JOINT LeftLeg
			{
				OFFSET 0.430247 -32.302673 3.732800
				CHANNELS 3 Xrotation Yrotation Zrotation
				JOINT LeftFoot
				{
					OFFSET -0.430247 -48.264931 -6.423300
					CHANNELS 3 Xrotation Yrotation Zrotation
					JOINT LeftToeBase
					{
						OFFSET 4.230900 -16.068199 23.438400
						CHANNELS 3 Xrotation Yrotation Zrotation
						JOINT LeftToe_End
						{
							OFFSET 4.510700 0.695400 19.974600
							CHANNELS 3 Xrotation Yrotation Zrotation
							End Site
							{
								OFFSET 0 0 0
							}
						}
					}
				}
			}
		}
	}
	JOINT RightUpLeg_virtual
	{
		OFFSET 0.000000 0.000000 0.000000
		CHANNELS 3 Xrotation Yrotation Zrotation
		JOINT RightUpLeg
		{
			OFFSET -11.333700 -6.187798 -0.413800
			CHANNELS 3 Xrotation Yrotation Zrotation
			JOINT RightLeg
			{
				OFFSET -0.430392 -32.302628 3.733000
				CHANNELS 3 Xrotation Yrotation Zrotation
				JOINT RightFoot
				{
					OFFSET 0.430392 -48.264973 -6.423500
					CHANNELS 3 Xrotation Yrotation Zrotation
					JOINT RightToeBase
					{
						OFFSET -4.230900 -16.068199 23.438400
						CHANNELS 3 Xrotation Yrotation Zrotation
						JOINT RightToe_End
						{
							OFFSET -4.510700 0.695400 19.974600
							CHANNELS 3 Xrotation Yrotation Zrotation
							End Site
							{
								OFFSET 0 0 0
							}
						}
					}
				}
			}
		}
	}
	JOINT Spine_virtual
	{
		OFFSET 0.000000 0.000000 0.000000
		CHANNELS 3 Xrotation Yrotation Zrotation
		JOINT Spine
		{
			OFFSET -0.002400 12.777504 0.315300
			CHANNELS 3 Xrotation Yrotation Zrotation
			JOINT Spine1
			{
				OFFSET -0.002067 5.816869 0.032633
				CHANNELS 3 Xrotation Yrotation Zrotation
				JOINT Spine1_split
				{
					OFFSET -0.002067 5.816869 0.032633
					CHANNELS 3 Xrotation Yrotation Zrotation
					JOINT Spine2
					{
						OFFSET -0.002067 5.816869 0.032633
						CHANNELS 3 Xrotation Yrotation Zrotation
						JOINT Neck_virtual
						{
							OFFSET 0.000000 0.000000 0.000000
							CHANNELS 3 Xrotation Yrotation Zrotation
							JOINT Neck
							{
								OFFSET -0.003700 21.199493 -0.826900
								CHANNELS 3 Xrotation Yrotation Zrotation
								JOINT Head
								{
									OFFSET 0.000000 20.442200 4.834800
									CHANNELS 3 Xrotation Yrotation Zrotation
									JOINT HeadTop_End
									{
										OFFSET 0.000000 34.668396 4.968400
										CHANNELS 3 Xrotation Yrotation Zrotation
										End Site
										{
											OFFSET 0 0 0
										}
									}
								}
							}
						}
						JOINT LeftShoulder_virtual
						{
							OFFSET 0.000000 0.000000 0.000000
							CHANNELS 3 Xrotation Yrotation Zrotation
							JOINT LeftShoulder
							{
								OFFSET 3.288150 8.794197 -1.372250
								CHANNELS 3 Xrotation Yrotation Zrotation
								JOINT LeftShoulder_split
								{
									OFFSET 3.288150 8.794197 -1.372250
									CHANNELS 3 Xrotation Yrotation Zrotation
									JOINT LeftArm
									{
										OFFSET 11.953299 -2.279007 -0.146200
										CHANNELS 3 Xrotation Yrotation Zrotation
										JOINT LeftForeArm
										{
											OFFSET 18.448900 0.000000 0.000000
											CHANNELS 3 Xrotation Yrotation Zrotation
											JOINT LeftHand
											{
												OFFSET 29.527798 0.000000 0.000000
												CHANNELS 3 Xrotation Yrotation Zrotation
												End Site
												{
													OFFSET 0 0 0
												}
											}
										}
									}
								}
							}
						}
						JOINT RightShoulder_virtual
						{
							OFFSET 0.000000 0.000000 0.000000
							CHANNELS 3 Xrotation Yrotation Zrotation
							JOINT RightShoulder
							{
								OFFSET -3.249400 8.794197 -1.372250
								CHANNELS 3 Xrotation Yrotation Zrotation
								JOINT RightShoulder_split
								{
									OFFSET -3.249400 8.794197 -1.372250
									CHANNELS 3 Xrotation Yrotation Zrotation
									JOINT RightArm
									{
										OFFSET -11.953299 -2.279007 -0.146200
										CHANNELS 3 Xrotation Yrotation Zrotation
										JOINT RightForeArm
										{
											OFFSET -18.448900 0.000000 0.000000
											CHANNELS 3 Xrotation Yrotation Zrotation
											JOINT RightHand
											{
												OFFSET -29.527802 0.000000 0.000000
												CHANNELS 3 Xrotation Yrotation Zrotation
												End Site
												{
													OFFSET 0 0 0
												}
											}
										}
									}
								}
							}
						}
					}
				}
			}
		}
	}
}
MOTION
Frames: 9
Frame Time: 0.03333333
-1.050936 77.553314 3.208427 0.000000 0.000000 0.000000 25.135916 -13.607530 -2.637592 -101.632907 -6.324243 4.412084 55.141866 11.655045 -8.192627 34.049675 29.206691 -0.120401 -7.825540 1.829478 2.122209 0.000000 0.000000 0.000000 24.324728 -10.205258 -4.567570 -4.674978 -12.207833 0.357863 60.611222 -0.187153 3.224186 -2.901978 -6.679492 29.316661 -61.009968 2.161157 7.741748 0.000000 0.000000 0.000000 18.626091 -11.534025 -6.175890 9.640630 13.087453 -8.801224 1.877724 4.015190 -0.564284 0.510108 1.967830 0.307682 0.000000 0.000000 0.000000 2.590062 4.334936 -0.700784 -0.230815 -4.138808 3.759690 -3.503727 -8.682615 12.062162 0.000000 0.000000 0.000000 3.239642 4.120367 -0.711406 1.553895 1.973945 -15.919487 -1.631803 -0.178475 -2.265833 -5.786849 24.654290 -35.869046 1.320990 -20.856188 -0.629488 0.000000 0.000000 0.000000 3.151051 4.027128 -0.649219 3.798015 12.117155 -6.528148 0.512832 0.586995 1.994224 -49.192679 64.750876 16.042610 -170.695170 77.042335 168.430990 0.000000 0.000000 0.000000 
-1.656638 77.379051 5.722485 0.000000 0.000000 0.000000 25.840001 -13.816844 -2.671251 -101.947007 -6.216657 4.965945 55.284497 11.138643 -8.184917 32.622903 29.006382 0.154256 -7.800507 1.791071 2.242087 0.000000 0.000000 0.000000 25.383254 -9.933283 -4.751536 -5.108913 -12.197710 -0.962761 59.049840 0.274999 3.489755 -0.859774 -6.195097 28.866890 -61.596114 1.136953 8.779945 0.000000 0.000000 0.000000 20.111096 -11.447340 -6.000017 10.116185 12.781564 -9.205949 2.085892 3.846638 -0.554059 0.712125 1.614362 0.122510 0.000000 0.000000 0.000000 2.748543 4.252630 -0.764127 -0.292273 -3.644005 3.592149 -3.500588 -9.054826 11.958791 0.000000 0.000000 0.000000 3.428946 3.935897 -0.716938 1.521839 1.073436 -16.247394 -2.182481 -0.927127 -2.557548 -7.738747 23.425749 -35.645173 1.478431 -22.496720 -0.605762 0.000000 0.000000 0.000000 3.179224 3.871698 -0.580169 3.832827 12.414279 -6.347489 0.552274 0.340086 2.026322 -46.247211 63.803884 12.995177 -169.011692 77.593394 166.993085 0.000000 0.000000 0.000000 
-2.774850 77.187500 8.715935 0.000000 0.000000 0.000000 27.181824 -13.878338 -2.552535 -102.961905 -6.234153 5.626998 56.800106 9.953885 -7.922617 29.414947 28.521145 0.762255 -8.317504 1.701302 2.497115 0.000000 0.000000 0.000000 27.412271 -9.197664 -4.788146 -7.472110 -11.798263 -3.181821 56.922055 0.294485 3.834913 2.688089 -6.223914 26.542346 -61.385506 -1.122289 11.974230 0.000000 0.000000 0.000000 22.611806 -11.590149 -5.573030 11.207288 11.968149 -9.939660 2.140490 3.630700 -0.704763 1.129347 1.402067 -0.169933 0.000000 0.000000 0.000000 2.794398 4.116719 -0.993344 -0.703281 -3.078805 3.382824 -3.957196 -9.751643 11.964676 0.000000 0.000000 0.000000 3.344216 3.697969 -0.877104 1.385073 -0.173929 -17.174043 -2.945233 -1.021862 -3.068034 -10.385914 21.669424 -34.420281 1.865562 -26.019063 -0.319278 0.000000 0.000000 0.000000 3.024888 3.625028 -0.703928 3.825989 12.908523 -5.770387 0.291404 0.411930 1.986546 -40.126159 61.263156 7.253348 -168.803891 76.733753 166.910849 0.000000 0.000000 0.000000 
-4.135653 76.932526 11.712006 0.000000 0.000000 0.000000 29.036224 -13.645003 -2.293573 -104.503855 -6.247101 6.256764 59.298343 8.287138 -7.447293 25.089863 27.635314 1.494099 -9.281810 1.528034 3.008650 0.000000 0.000000 0.000000 29.960741 -8.306918 -4.613512 -12.152958 -11.129573 -6.227043 54.881605 0.025487 4.194783 7.324282 -6.955909 23.051602 -60.913143 -3.930805 16.043343 0.000000 0.000000 0.000000 25.751773 -11.750481 -4.963831 12.666078 10.776214 -10.857841 2.018757 3.368037 -0.945674 1.438061 1.179589 -0.238415 0.000000 0.000000 0.000000 2.735930 3.917369 -1.299797 -1.385339 -2.525229 3.116635 -4.852975 -10.689464 12.028238 0.000000 0.000000 0.000000 3.071383 3.428349 -1.139323 1.166750 -1.496463 -18.600482 -3.734636 -0.497260 -3.608742 -12.770220 19.719972 -32.638411 2.378677 -30.696117 0.171419 0.000000 0.000000 0.000000 2.716634 3.307490 -0.959875 3.829976 13.505312 -4.953792 -0.092627 0.795450 1.891034 -33.433755 57.573475 1.515828 -170.001455 74.464348 168.147537 0.000000 0.000000 0.000000 
-5.496021 76.710556 14.614811 0.000000 0.000000 0.000000 31.177502 -13.094019 -2.032768 -106.326135 -6.048585 6.932705 62.113713 6.400649 -6.829668 20.541620 26.507483 2.055396 -10.184838 1.282216 3.672627 0.000000 0.000000 0.000000 32.544858 -7.631800 -4.237519 -19.632144 -10.300779 -10.160306 53.628118 0.086456 4.396417 12.826279 -7.682815 20.180608 -61.388292 -6.392040 19.163356 0.000000 0.000000 0.000000 29.047510 -11.700841 -4.350096 14.286521 9.352523 -11.803359 1.782282 3.102267 -1.216456 1.600491 0.945547 -0.077036 0.000000 0.000000 0.000000 2.583844 3.661603 -1.586315 -2.185579 -2.078862 2.830418 -6.031995 -11.648269 12.040155 0.000000 0.000000 0.000000 2.716380 3.156920 -1.412296 0.895373 -2.738833 -20.361649 -4.313739 0.100547 -3.951231 -14.297970 17.691102 -30.653162 2.836814 -36.018043 0.742646 0.000000 0.000000 0.000000 2.345397 2.963867 -1.246458 3.852120 14.136075 -4.102003 -0.384563 1.348597 1.768529 -27.604857 53.504512 -2.863108 -171.714330 71.215241 169.830536 0.000000 0.000000 0.000000 
-6.858234 76.680908 17.494476 0.000000 0.000000 0.000000 33.533524 -12.261453 -1.916507 -108.079944 -5.445234 7.863043 64.422310 4.630219 -6.187052 16.142741 25.464975 2.359061 -10.410748 1.030926 4.343754 0.000000 0.000000 0.000000 34.867918 -7.543649 -3.737593 -29.218542 -9.500120 -14.811045 53.732979 0.837397 4.449195 18.707968 -7.847328 18.745835 -62.626298 -7.825758 20.197252 0.000000 0.000000 0.000000 32.215837 -11.334157 -3.989978 15.796156 7.907748 -12.617121 1.543684 2.867168 -1.470948 1.424409 0.770056 0.110499 0.000000 0.000000 0.000000 2.397758 3.363318 -1.811006 -2.974504 -1.760840 2.590367 -7.241069 -12.504067 11.936264 0.000000 0.000000 0.000000 2.375573 2.903238 -1.648863 0.596793 -3.868852 -22.115830 -4.460623 0.670002 -3.995840 -14.808262 15.756760 -28.850835 3.025291 -41.218354 1.219523 0.000000 0.000000 0.000000 1.997172 2.641347 -1.496319 3.899311 14.809559 -3.284610 -0.661904 1.920820 1.756304 -23.141162 49.765325 -5.587353 -173.274113 67.902093 171.339380 0.000000 0.000000 0.000000 
-8.381711 76.914757 20.417158 0.000000 0.000000 0.000000 35.948689 -11.210775 -2.141500 -109.356957 -4.587601 9.135158 65.725121 3.068900 -5.513096 12.140869 24.713931 2.183603 -9.950011 0.827340 4.820266 0.000000 0.000000 0.000000 36.895360 -7.872250 -3.375013 -39.695048 -9.039895 -19.893998 54.759068 2.013300 4.499396 23.728987 -7.595485 18.384651 -62.878947 -7.742239 19.155254 0.000000 0.000000 0.000000 35.187775 -10.481025 -4.102919 17.090250 6.567448 -13.219012 1.386278 2.624764 -1.726638 1.187339 0.564656 0.348452 0.000000 0.000000 0.000000 2.276505 3.049510 -1.969272 -3.721403 -1.551249 2.391405 -8.233633 -13.272196 11.731357 0.000000 0.000000 0.000000 2.136881 2.670694 -1.844286 0.279735 -5.006636 -23.581862 -4.204657 0.791787 -3.688853 -15.019629 13.890146 -27.355237 2.886264 -45.451282 1.516348 0.000000 0.000000 0.000000 1.706739 2.351469 -1.687829 3.921303 15.432884 -2.453472 -0.951417 2.450463 1.864626 -19.947817 46.717340 -6.968560 -174.528942 65.230663 172.563227 0.000000 0.000000 0.000000 
-9.954600 77.371162 23.064447 0.000000 0.000000 0.000000 38.169976 -10.111434 -2.824497 -109.981591 -3.776020 10.806613 66.200577 1.642714 -4.774177 8.458700 24.362322 1.533137 -9.039091 0.691832 4.937227 0.000000 0.000000 0.000000 38.920108 -8.257559 -3.498383 -49.526955 -9.198493 -24.887597 55.293294 2.869675 4.646263 26.543826 -7.627221 17.887436 -60.655290 -6.066812 16.593296 0.000000 0.000000 0.000000 37.940560 -9.638179 -4.658895 18.168109 5.455472 -13.461523 1.319065 2.392798 -2.017430 1.174713 0.228448 0.521082 0.000000 0.000000 0.000000 2.217023 2.768275 -2.100583 -4.380649 -1.459350 2.283031 -8.840702 -13.806172 11.437934 0.000000 0.000000 0.000000 2.032942 2.471025 -2.035156 -0.016771 -6.222133 -24.488417 -3.780155 0.462188 -3.103910 -15.434597 11.845392 -26.190164 2.482950 -48.165900 1.588106 0.000000 0.000000 0.000000 1.563407 2.123380 -1.873291 3.866800 15.925541 -1.619435 -1.107463 2.905284 2.088743 -17.703015 44.450898 -7.547620 -175.553251 63.405281 173.622289 0.000000 0.000000 0.000000 
-11.509885 77.885956 25.600420 0.000000 0.000000 0.000000 40.268384 -9.049564 -3.936033 -110.188109 -3.318087 12.600899 66.407778 0.362478 -4.011926 5.022220 24.324380 0.519625 -8.011194 0.596866 4.714514 0.000000 0.000000 0.000000 41.036767 -8.254886 -4.315713 -57.731716 -9.826206 -29.326435 54.530816 2.773855 4.956180 27.322466 -8.751819 16.552417 -55.630822 -3.462314 13.147804 0.000000 0.000000 0.000000 40.561816 -9.087675 -5.481610 19.002131 4.682309 -13.262948 1.356541 2.200887 -2.340734 1.165442 -0.153107 0.611268 0.000000 0.000000 0.000000 2.170283 2.538090 -2.248549 -4.901773 -1.465111 2.259592 -9.103558 -14.119508 11.137110 0.000000 0.000000 0.000000 2.058394 2.320834 -2.278677 -0.232876 -7.578140 -24.439313 -3.018848 -0.108170 -2.615826 -16.301563 9.492640 -25.343248 1.917540 -49.082614 1.455629 0.000000 0.000000 0.000000 1.605157 1.975297 -2.096222 3.761501 16.294864 -0.807697 -1.037406 3.277816 2.370980 -16.170360 42.928477 -7.656257 -176.485395 62.264797 174.676515 0.000000 0.000000 0.000000 
